# xmcd
#
# Track frame offsets: 
#        150
#        12652
#        29667
#        46517
#        69085
#        86661
#        101443
#        118646
#        142059
#        163959
#        183843
#        207699
#
# Disc length: 2916 seconds
#
# Revision: 3
# Processed by: cddbd v1.5.2PL0 Copyright (c) Steve Scherf et al.
# Submitted via: ExactAudioCopyFreeDBPlugin 1.0
#
DISCID=a70b620c
DTITLE=Marchet, Florent - Bambi Galaxy
DYEAR=2014
DGENRE=Chanson
TTITLE0=Alpha Centauri
TTITLE1=Reste Avec Moi
TTITLE2=Que Font Les Anges
TTITLE3=Où Etais-tu
TTITLE4=Héliopolis
TTITLE5=647
TTITLE6=Space Opéra
TTITLE7=Bambi Galaxy
TTITLE8=La Dernière Seconde
TTITLE9=Devant l'Espace
TTITLE10=Apollo 21
TTITLE11=Ma Particule Elémentaire
EXTD=YEAR: 2014
EXTT0=
EXTT1=
EXTT2=
EXTT3=
EXTT4=
EXTT5=
EXTT6=
EXTT7=
EXTT8=
EXTT9=
EXTT10=
EXTT11=
PLAYORDER=
